<svg xmlns="http://www.w3.org/2000/svg" width="100%" height="300" viewBox="0 0 750 300">
  <defs>
    <style>
      .cls-1 {
        fill-rule: evenodd;
      }
      .path {
          fill: none;
    stroke: #444554;
    stroke-dasharray: 1000;
    stroke-dashoffset: 0;
    animation: dash 6s linear alternate;
}

@keyframes dash {
  from {
    stroke-dashoffset: 1000;
  }
  to {
    stroke-dashoffset: 0;
  }
}  
    </style>
  </defs>
  <path id="Alvin_Chau_dolor_sit_amet_consectetur_adipiscing_elit_sed_do_" data-name="Alvin Chau dolor sit amet, consectetur adipiscing elit, sed do " class="path cls-1" d="M76.7,206.476q3,0,3.8-1.6a12.591,12.591,0,0,0,.6-4v-0.8q0-8.6-1.2-26.2-1.2-17.4-1.2-26l-2.6-33.2q-1.6-18.4-3.7-36.4t-3.1-19.8a5.226,5.226,0,0,0-4.6-2q-1.2,0-3,3.4a47.655,47.655,0,0,0-2.8,8q-2.6,9.4-3.6,14.2-2,8-7.2,38.8l-1.2,6.6q-4.8,26.4-6.4,33-1,3-3,13.2-1.8,9-4.2,18.4l-2.2,10v0.2l-0.2.4a2.947,2.947,0,0,0,1.3,2.4,4.626,4.626,0,0,0,2.9,1,1.891,1.891,0,0,0,2-1.6l1-4.4q2.6-11.8,5.2-22.2,0.4-1.4,1.3-4.4t1.3-3a90.871,90.871,0,0,1,16.8,2q10.2,2,10.2,4.4v26.2a3.127,3.127,0,0,0,1.1,2.4,3.854,3.854,0,0,0,2.7,1h0Zm-8-38.6a4.408,4.408,0,0,1-1.4-.2H66.1a66.58,66.58,0,0,1-20.2-2.8v-1.2q0-5.2,3-15.2l1.8-6.8q3.4-15,8.2-44.8,1.6-10.6,3.1-18.4a83.252,83.252,0,0,1,3.1-12.2l0.4,2.4a22.287,22.287,0,0,0,.4,2.2l0.8,7.8q1.2,8.4,1.6,15.4,1.6,16.4,3,37.9t1.4,33.9q0,2-4,2h0Zm44,41.2a14.982,14.982,0,0,0,3.6-.4,34.03,34.03,0,0,1,3.8-.2l-0.4-.2q13.2,0,16.6.2,3.2-.2,3.2-2.6a3.4,3.4,0,0,0-1-2.3,2.8,2.8,0,0,0-2-1.1h-0.6c-0.269,0-.969-0.032-2.1-0.1s-3.234-.1-6.3-0.1l-10.4-.4a0.882,0.882,0,0,1-1-1,20.743,20.743,0,0,1-.2-4v-1.2l0.6-19.2a6.182,6.182,0,0,1-.6-2.8v-0.8a1.168,1.168,0,0,0,.2-0.8l-0.2.2,0.6-1.6-0.2-8.6q-0.2-3.8-.2-8.4,0-4.2.2-8.2l0.2-4.2a29.075,29.075,0,0,1,.2-4.4q0-12.2-.2-21.8v-29.6q0.2-3.6.2-8l-0.6-.2a9.6,9.6,0,0,0-2.8-.6,1.238,1.238,0,0,0-1.4,1.4l-0.6,6-0.4,7.2q0,16-.6,52-0.6,36.2-.6,54.6a30.28,30.28,0,0,1-.4,6.6q0.6,4.6,3.4,4.6h0Zm64-.2q4.8,0,6.4-6.8a78.4,78.4,0,0,0,1.6-12.4l0.4-4.6q1-4.6,2.6-10.6a65.722,65.722,0,0,0,2.3-9.8q0.5-3.8,1.5-14.6l0.4-4.6q1.4-13.2,2.5-20.2t4.1-20l3.4-15.8,1.2-5.2a55.421,55.421,0,0,0,1.8-12,1.654,1.654,0,0,0-.7-1.2,3.7,3.7,0,0,0-1.5-.8l-2.6,1q-1.8,9.8-6.2,31.4-5.2,25-8,49.8-2.8,26.6-6.8,39.6l-1.4-9.8q-1.4-9.4-1.4-10.2l-3-19.6a71.571,71.571,0,0,1-1.6-9.4l-1.8-10.2-1.8-9.6-2-10.2q-0.8-4.2-4.6-19.6a29.408,29.408,0,0,1-.6-3.6q-0.4-1.4-1.1-4.7t-1.5-5.9q-1.6-6.2-4.4-6.2a2.521,2.521,0,0,0-1.7.9,2.457,2.457,0,0,0-.9,1.5,28.505,28.505,0,0,0,1.2,5.2l2.6,9.2,1.6,6.2q8,35.6,12.9,65.6t4.9,45.4Zm2.2-15.4-0.2-.4,0.2-.4v0.8Zm62,13a9.21,9.21,0,0,0,3.6-1.2,10.574,10.574,0,0,1,3.6-1,27.731,27.731,0,0,1,3.4.2,11.6,11.6,0,0,0,3.2.4,4.552,4.552,0,0,0,3.2-1.1,3.745,3.745,0,0,0,1.2-2.9q0-2.8-5.8-2.8h-3a18.649,18.649,0,0,1-3,.2q-4.4,0-4.4-2l0.2-.4q-0.6-1-.6-5.6a26.252,26.252,0,0,1,.2-3.6v-2.6q0-7.4-.6-22-0.8-12.8-.8-21.8l0.4-23.8q0.2-10.6.2-23.8,0-8.8-.6-10.6l1-.6q4.4,0,5.8,1.2l4.6-.4a4.813,4.813,0,0,0,.6-1.6q0-2.2-3.6-3.4a32.239,32.239,0,0,0-9.2-1.8,145.7,145.7,0,0,0-15.2-.8,7.786,7.786,0,0,0-3,.8q-1.8.8-1.8,1.6,0,3.4,3.8,3.4a15.743,15.743,0,0,0,2.6-.2l2.2-.2a21.053,21.053,0,0,1,6,.6,201.437,201.437,0,0,1,1,23.2l-0.4,23.2q-0.6,15.6-.6,23.4l0.4,14.6,0.4,7.4q0.6,9.6.6,21.8l-0.2,2.4-0.4,1.8-0.8.8h-5.8l-1,1a2.85,2.85,0,0,0-1.6,2.4q1.2,2,5.6,2h1.6a5.233,5.233,0,0,1,1.6-.2q0.8,2,5.4,2h0Zm87.6,0.8,2-.6,0.2,0.2v-0.2l3.4-.8q2-3.8,4.2-47.2t2.2-62.4l1-1.6v-13.4a6.68,6.68,0,0,0-1.3-4,3.77,3.77,0,0,0-3.1-1.8q-2.8,0-2.8,4.2a13.634,13.634,0,0,0,.2,2.6l0.2,2.4q0,64.6-4.6,109l-0.4.6q-5.2-9.2-9-26.2-1.2-5.4-3.2-12.4-2.8-8.8-14.2-35.8-11.2-25.6-14.4-39.8a3.259,3.259,0,0,1-.2-1l-0.4-1.2a2.5,2.5,0,0,0-.8-1.8,4.254,4.254,0,0,0-1.8-1.2l-2,.4-0.6-.6q-3.6,3-3.6,12.8v2.6q0,5.8-.6,17.6-0.6,12-.6,17.8,0,9.6.6,28.8t0.6,28.8a50.263,50.263,0,0,1-.4,6.6l-0.4,6.4q0,10.8,4.2,10.8a3.523,3.523,0,0,0,2.7-1.2,4.021,4.021,0,0,0,1.1-2.8,9.469,9.469,0,0,0-.8-4.2v-18q-1.4-3.4-1.4-36.8h0.6l-0.4-6.4a61.809,61.809,0,0,1-.4-7.6q0-2.6.2-4.8l0.2-4.8-0.2-7.8q-0.2-3.4-.2-8a50.432,50.432,0,0,1,1.6-14q4.6,4.6,22.6,60.2l1.6,4.8q3.4,9.8,3.8,10.2l3.6,10.4a126.348,126.348,0,0,1,6.8,23l-0.2.6a8.639,8.639,0,0,1,.8,2.8,14.277,14.277,0,0,0,1.3,3.6q0.7,1.2.7,1.2h1.6Zm101.2,2.4a34.585,34.585,0,0,0,14-2.8,13.6,13.6,0,0,0,6-4.1,9.679,9.679,0,0,0,2.2-6.3q0-2.8-1.8-2.8-2,0-3.8,2.4-4.8,5.8-14,5.8a25,25,0,0,1-9.9-2,15.074,15.074,0,0,1-7.1-5.8q-2.6-4.2-5.4-31t-2.8-40.6q0-5.6-.2-10.4l-0.2-11.2a102.668,102.668,0,0,1,.6-12,54.763,54.763,0,0,1,2-11.2,30.407,30.407,0,0,1,3.8-8.8,18.734,18.734,0,0,1,7.1-6.1,21.893,21.893,0,0,1,10.1-2.3,13.011,13.011,0,0,1,5.4,1.4,15.475,15.475,0,0,0,4.6,1.4q3.2,0,3.2-2.2,0-3-3.9-5.2a15.608,15.608,0,0,0-7.7-2.2,40.389,40.389,0,0,0-10.2,1.2q-8.8,2.2-13.2,9a29.54,29.54,0,0,0-3.7,7,47.432,47.432,0,0,0-2.1,8.6,176.186,176.186,0,0,0-1.2,20.6q0,5.6.2,10.2v10.6q0,13.6,2.5,41.4t4.9,33a25.706,25.706,0,0,0,8.8,10q6.2,4.4,11.8,4.4h0Zm76-1,1.4-2.2q-1.4-16-1.4-39.6,0-15.6-1.2-46.8-1.2-31-1.2-46.6a3.471,3.471,0,0,0-1.8-.6l-1.8-.6a3.458,3.458,0,0,0-2.4.9,2.74,2.74,0,0,0-1,2.1q0,9.2,1.2,27.6,1.4,17,1.4,27.6,0,3.6-1.7,5.1t-5.5,1.5h-0.8q-15.2,0-15.2-2.4,0-13.2.4-24.2,0.2-11,.2-24.6,0-11.6-4-11.6a3.024,3.024,0,0,0-2.4,1.2,3.974,3.974,0,0,0-1,2.6l0.4,15.6,0.4,7.8q0.8,13.8.8,23.4,0,11.2-1,13.2,0.6,1.4.6,19.6l-0.2,18.2q-0.2,8.2-.2,18.4,0,12,4.4,12a2.576,2.576,0,0,0,2.4-1.5,7.811,7.811,0,0,0,.8-3.7q0-5.6-.6-16.6-0.6-11.2-.6-16.8l-0.4-.8q0-7,.2-12.6t0.2-12.6l2.2-.8a22.2,22.2,0,0,1,6.2,1,43.072,43.072,0,0,0,6.6,1,12.6,12.6,0,0,0,4-.6l3,0.8a36.044,36.044,0,0,1,.8,7.4l-0.8,1.8,0.6,0.8q0,16.6,1,53.6,6,0,6,2h0Zm-12.6-74h0.4l-0.4-.4v0.4Zm81.4,73.6a3.313,3.313,0,0,0,1.6-3v-0.6q-9-71-11.2-96.8-0.4-4.2-1.2-10.6a198.151,198.151,0,0,1-1.4-22,2.663,2.663,0,0,0-1.1-2.1,3.848,3.848,0,0,0-2.5-.9,4.889,4.889,0,0,1-3.6,1.2,4.394,4.394,0,0,1-1.4-.2h-1.4q-0.6.8-1.2,6-0.6,3.6-1.4,11.2-0.6,6.8-.8,7.4-0.6,5-3.4,18.6-2.6,12-3.6,17.4l-2.2,13.2-2.4,15.2-2.4,12.4q-2.4,14-6,28.2l-0.2.6-0.2.6a3.017,3.017,0,0,0,1.4,2.3,4.34,4.34,0,0,0,2.6,1.1q1.4,0,3-3.4a36.342,36.342,0,0,0,2.4-8.4,144.807,144.807,0,0,0,2.2-14.4l0.4-4c0.131,0,.2-0.2.2-0.6a1.231,1.231,0,0,1,1.4-1,63.44,63.44,0,0,1,7,.6l7.2,0.4a45.386,45.386,0,0,1,10,1l1,8q0.4,3.6,2.2,18.2,0.4,3,1.2,3.7l0.8,0.7h3Zm-11.2-36a129.555,129.555,0,0,1-13.4-.8q-7.6-.8-7.6-1.8,0-6,4.6-29l10.8-53.4q5.6,56.2,7.6,85h-2Zm55.4,37.2q9.8,0,14.2-12.8,4.2-12,4.8-29.4,0.4-14,.8-33a34.362,34.362,0,0,1,.2-4.4q0-4.4.4-9.2a8.488,8.488,0,0,0-.2-2v-2l0.4-8a80.2,80.2,0,0,0,.6-8l-0.2-1.2q1.2-5.2,1.2-20.4a41.325,41.325,0,0,0-.4-7q-0.6-1.2-3-1.2-3.4,0-3.4,2.2a7.379,7.379,0,0,0,.2,1.8l0.2,1.8q0,26.4-1.4,81.4l-0.2,4q-2.6,42-11.8,42-15,0-15-22.8,0-7.2-1.2-21.2-1-15.6-1-21.2l-0.6-53q0-10.4-4.6-11l-1.2,2.8q1.2,9.2,1.6,59.4,0.2,2.4.2,7.2,0.4,21.4,2,38t4.4,20.2a22.6,22.6,0,0,0,6.1,4.9,14.11,14.11,0,0,0,6.9,2.1h0Z"/>
</svg>
