<svg xmlns="http://www.w3.org/2000/svg" width="100%" height="400" viewBox="0 0 820 400">
  <defs>
    <style>
      .cls-1 {
        fill-rule: evenodd;
      }
      .path {
          fill: none;
    stroke: #444554;
    stroke-dasharray: 1000;
    stroke-dashoffset: 0;
    animation: dash 6s linear alternate;
}

@keyframes dash {
  from {
    stroke-dashoffset: 1000;
  }
  to {
    stroke-dashoffset: 0;
  }
}  
    </style>
  </defs>
  <path stroke-width="4" stroke-miterlimit="10" id="Alvin_Chau" data-name="Alvin Chau" class="path cls-1" d="M112.236,233.723q-1.9,3.808-3.564,7.959a18.908,18.908,0,0,0-1.66,6.4q0,5.47,3.125,8.447a9.26,9.26,0,0,0,6.347,2.979,13.959,13.959,0,0,0,5.42-1.123,32.542,32.542,0,0,0,5.957-3.418q3.271-2.293,7.715-5.762t12.451-9.521l0.782-5.176q-14.941,8.6-16.993,8.594-4.2,0-4.2-4,0-2.733,11.426-24.219L153.4,213.7q3.612-4.783,7.422-9.424t5.323-6.64a6.293,6.293,0,0,0,1.513-2.784q0-1.756-1.22-1.953a65.131,65.131,0,0,0-6.788-.195q-2.05-.1-3.857-0.146t-4.541-.049q8.3-15.429,16.357-29.151t10.547-18.7a20.165,20.165,0,0,0,2.491-8.789,14.246,14.246,0,0,0-3.223-8.789,269.115,269.115,0,0,0-30.908,19.092,345.835,345.835,0,0,0-27.588,21.972q-13.088,11.573-29.1,27.2-1.856.1-5.713,0.146t-6.25.049H72.637a4.871,4.871,0,0,1,3.271-3.955q2.978-1.318,10.107-2.3-12.11.1-16.406,1.465T60.43,197.1q-8.986,8.985-8.984,13.183,0,2.637,1.953,3.32a29.672,29.672,0,0,0,7.617.831,85.469,85.469,0,0,1,9.18.634L51.641,234.9a7.54,7.54,0,0,0-3.027-.977q-3.907,0-10.059,5.469a68.819,68.819,0,0,0-11.035,12.6q-4.882,7.128-4.883,10.547,0,3.124,3.418,3.125a11.706,11.706,0,0,0,6.641-2.588,57.777,57.777,0,0,0,6.885-5.81q3.271-3.223,14.111-13.77,1.854-1.854,4.736-4.638t6.885-6.739q4-3.954,8.5-8.593t7.617-8.057q14.843,0.392,23.242.391,5.468,0,17.187-.391Q114.141,229.915,112.236,233.723Zm6.006-54.834q7.128-6.494,16.309-14.063t16.5-12.939q7.324-5.37,14.355-9.766-3.613,6.057-6.592,10.84t-7.129,11.67q-4.15,6.885-7.617,12.744t-9.033,15.332l-31.641.586Q111.113,185.384,118.242,178.889Zm79.59,56.2a53.051,53.051,0,0,1-5.957,4.736,9.612,9.612,0,0,1-5.273,1.9,8.565,8.565,0,0,1-7.471-3.906q-2.688-3.9-2.686-10.156a44.616,44.616,0,0,1,.977-7.813q19.725-20.6,30.762-40.38t11.035-33.35a19.547,19.547,0,0,0-.684-6.2,2.658,2.658,0,0,0-2.734-1.807,9.978,9.978,0,0,0-4.59,1.758q-7.229,4.2-15.674,14.7a175.209,175.209,0,0,0-16.308,24.61,170.723,170.723,0,0,0-12.549,27.832q-4.687,13.72-4.688,23.681,0,12.3,3.955,19.873t10.889,7.569q12.792,0,33.2-27.051v-7.227Q200.957,232.259,197.832,235.09Zm-6.445-57.471q7.421-14.21,13.379-19.092a5.706,5.706,0,0,1,2.246-1.074q1.56,0,1.562,2.246,0,2.929-2.392,8.692a111.668,111.668,0,0,1-6.592,12.988,141.739,141.739,0,0,1-8.936,13.574,97.491,97.491,0,0,1-9.814,11.328A113.722,113.722,0,0,1,191.387,177.619Zm45.7,31.152q6.541-9.423,6.543-14.306,0-1.465-2.637-2.539a14.613,14.613,0,0,0-5.566-1.074,9.951,9.951,0,0,0-6.1,2,44.978,44.978,0,0,0-7.08,7.47Q207.6,218.489,207.6,231.477a34.321,34.321,0,0,0,4.736,17.724q4.736,8.057,11.475,8.057,3.9,0,10.156-5.225a204.649,204.649,0,0,0,16.211-15.771q5.076,2.637,7.031,2.636a18.474,18.474,0,0,0,8.154-1.562A54.512,54.512,0,0,0,274,231.477v-6.543a57.526,57.526,0,0,1-6.494,4.638,9.54,9.54,0,0,1-4.737,1.514q-2.54,0-4.98-4.4a98,98,0,0,0,7.91-11.767,62.609,62.609,0,0,0,4.883-10.645,27.053,27.053,0,0,0,1.66-8.349q0-5.663-4.3-5.664-2.735,0-8.349,6.25a80.128,80.128,0,0,0-10.254,14.55q-4.64,8.3-4.737,14.649Q228.4,242.121,224.2,242.121q-4.394,0-4.394-5.273a14.5,14.5,0,0,1,.39-3.516l1.758-8.2A78.1,78.1,0,0,0,237.09,208.771ZM322.441,176.2q4-5.076,4-9.277a6.77,6.77,0,0,0-1.953-5.225,6.919,6.919,0,0,0-4.883-1.806q-4.393,0-8.5,5.273t-4.1,9.57a5.872,5.872,0,0,0,2.2,4.688,7.094,7.094,0,0,0,4.639,1.855Q318.436,181.281,322.441,176.2Zm-16.259,59.522q-5.519,3.369-10.108,3.369a9.907,9.907,0,0,1-6.836-2.344,7.513,7.513,0,0,1-2.636-5.859,11.384,11.384,0,0,1,2.587-7.325,154.427,154.427,0,0,1,11.084-11.425,42.926,42.926,0,0,0,6.885-9.473q3.856-6.64,3.858-9.766,0-4.589-5.957-4.59-11.525,0-25.391,21.583-2.93,4.785-4,7.031a27.3,27.3,0,0,0-1.855,5.713,32.934,32.934,0,0,0-.782,7.275,42.976,42.976,0,0,0,3.907,18.359q3.9,8.4,11.914,8.4,5.76,0,13.964-6.2t17.676-18.409v-7.128A124.587,124.587,0,0,1,306.182,235.725Zm83.447-35.01a26,26,0,0,0-1.514-8.692q-1.515-4.3-3.076-4.3-3.42,0-8.594,3.613a135.7,135.7,0,0,0-16.552,12.793,158.66,158.66,0,0,0-12.6,12.744q-5.324,6.1-8.691,9.863t-4.542,3.76q-1.856,0-1.855-2.832,0-5.076,15.43-22.168,2.343-2.538,3.076-3.418a12,12,0,0,0,1.318-1.953,4.285,4.285,0,0,0,.586-2.051,3.558,3.558,0,0,0-1.9-3.32,10.211,10.211,0,0,0-5.029-1.074q-4.494,0-9.375,4.834T324.688,213.7a56.131,56.131,0,0,0-4.834,8.594,23.114,23.114,0,0,0-1.221,8.4,40.562,40.562,0,0,0,2.637,15.235q2.635,6.543,5.761,6.543a5.806,5.806,0,0,0,4.053-2,82.947,82.947,0,0,0,6.348-7.813q4.344-5.808,8.154-10.547a108.822,108.822,0,0,1,9.277-10.009q8.4-8.4,13.965-11.231-4.591,7.716-8.1,13.818t-5.225,9.375a40.6,40.6,0,0,0-2.686,6.3,19.935,19.935,0,0,0-.976,6.153q0,10.547,8.008,10.546,4.688,0,12.109-6.054t21.289-19.727v-6.738q-9.667,7.617-14.209,10.6t-7.373,2.978q-3.42,0-3.418-4.2,0-7.519,17.188-26.66,4.2-4.4,4.2-6.543h0Zm141.309,56.347Q512.968,268.1,498.809,268.1a20.51,20.51,0,0,1-11.182-2.93,18.374,18.374,0,0,1-7.031-8.3,32.886,32.886,0,0,1-2.393-13.379q0-13.864,9.766-32.129a200.354,200.354,0,0,1,24.365-35.4,210.229,210.229,0,0,1,28.516-28.223q13.915-11.082,20.752-11.084a4.428,4.428,0,0,1,3.662,1.514,6.782,6.782,0,0,1,1.22,4.346q0,6.837-6.591,17.529a139.276,139.276,0,0,1-14.5,19.58q-7.911,8.887-9.571,8.887-0.585,0-.586-0.781a10.074,10.074,0,0,1,1.026-2.637,8.62,8.62,0,0,0,1.025-3.028,0.565,0.565,0,0,0-.683-0.585q-1.37,0-8.35,6.591a112.333,112.333,0,0,0-12.891,14.5q-5.908,7.911-5.908,13.477a7.223,7.223,0,0,0,2.588,5.42,8.124,8.124,0,0,0,5.615,2.392q4.491,0,14.7-7.959a166.805,166.805,0,0,0,21.435-20.556,145.85,145.85,0,0,0,18.75-26.123q7.52-13.525,7.52-24.561a26.96,26.96,0,0,0-1.856-10.351,14.917,14.917,0,0,0-5.273-6.836,14.323,14.323,0,0,0-8.3-2.344,39.6,39.6,0,0,0-12.061,2.441,85.4,85.4,0,0,0-15.771,7.422,143.314,143.314,0,0,0-18.945,13.721,205.943,205.943,0,0,0-21.192,20.752q-10.352,11.622-18.017,22.168a174.032,174.032,0,0,0-12.94,20.459,101.24,101.24,0,0,0-8.057,19.629,66.941,66.941,0,0,0-2.783,18.408q0,11.034,3.858,19.092a26.927,26.927,0,0,0,11.425,12.256q7.567,4.2,18.116,4.2,12.205,0,25.293-6.4a126.561,126.561,0,0,0,26.806-18.261,344.394,344.394,0,0,0,30.127-30.127v-6.348Q548.9,246.028,530.938,257.062Zm90.917-19.531q-4.393,0-4.394-4.59a16.9,16.9,0,0,1,2.246-7.47,71.541,71.541,0,0,1,6.4-9.864q4.149-5.516,11.181-13.916a4.751,4.751,0,0,0,.977-2.441q0-2.246-2.539-5.713t-5.469-3.467q-3.126,0-9.766,4.737a149.112,149.112,0,0,0-16.211,14.013q-9.572,9.279-22.656,23.828V220.93q7.812-8.592,13.916-15.967t13.477-16.8q7.372-9.423,11.084-14.551t12.6-17.724q8.2-11.914,11.573-17.53t3.369-8.056q0-1.367-2.1-2.442a15.046,15.046,0,0,0-5.517-1.367q-2.736-.195-10.743,8.154t-20.166,24.61q-12.158,16.26-29.248,41.845-8.106,12.21-9.961,19.629a56.364,56.364,0,0,0-1.855,13.575q0,18.75,7.617,18.75,1.854,0,3.906-2.247t7.91-9.716q5.86-7.471,12.208-14.6,2.05-2.439,5.078-5.908a56.4,56.4,0,0,1,6.933-6.641,57.182,57.182,0,0,1,8.3-5.615,189.751,189.751,0,0,0-13.623,22.412q-4.738,9.522-4.736,16.748,0,8.987,7.617,8.985,3.222,0,7.861-2.832a79.036,79.036,0,0,0,10.84-8.35q6.2-5.516,14.7-14.209v-6.152q-16.113,12.6-20.8,12.6h0Zm24.122-21.582a18.565,18.565,0,0,0-3.418,6.3,28.372,28.372,0,0,0-.879,7.666,31.248,31.248,0,0,0,2.49,12.256,35.73,35.73,0,0,0,5.713,9.619q3.222,3.713,5.371,3.711,4.491,0,11.426-6.689t21.191-22.51q-5.567,14.648-5.566,22.363,0,4.884,1.611,7.373t5.42,2.49q10.643,0,35.352-27.441v-5.957q-14.553,12.795-21.387,12.793-6.642,0-6.641-7.227a13.681,13.681,0,0,1,1.9-7.422q1.9-3.025,6.641-9.423t4.736-8.741a7.566,7.566,0,0,0-.586-2.685q-0.585-1.514-1.66-3.955t-1.757-4a27.244,27.244,0,0,0,4.785-2,2.811,2.811,0,0,0,1.367-2.588,9.211,9.211,0,0,0-1.026-3.32,12.979,12.979,0,0,0-2.783-3.955,5.387,5.387,0,0,0-3.808-1.709q-7.617,0-21.582,6.543t-28.809,20.019A87,87,0,0,0,645.977,215.949Zm34.472,7.178A76.716,76.716,0,0,1,661.7,238.9a10.657,10.657,0,0,1-3.808,1.368,3.255,3.255,0,0,1-2.93-2,10.778,10.778,0,0,1-1.074-5.127q0-8.592,10.791-16.7t36.181-19.727Q688.945,213.41,680.449,223.127ZM761.9,236.506q-2.444,6.3-2.442,10.01,0,9.766,8.2,9.765a14.711,14.711,0,0,0,7.617-2.441,72.041,72.041,0,0,0,9.473-7.227q5.467-4.784,16.895-15.332v-6.543q-9.082,7.13-13.477,9.864t-7.715,2.734q-4,0-4-5.078,0-2.345,2.051-6.983a50.43,50.43,0,0,1,4.785-8.545q5.078-7.323,8.789-12.695T797,196.662a15.593,15.593,0,0,0,1.611-3.271A11.6,11.6,0,0,0,799,190.07q0-4.489-.83-5.957A3.327,3.327,0,0,0,795,182.648a7.9,7.9,0,0,0-5.078,2.3q-2.637,2.3-9.863,9.912-3.127,3.323-8.155,9.913a68.835,68.835,0,0,1-8.838,9.912q-5.177,4.394-11.67,10.107t-9.228,7.715q-2.734,2-3.906,2-3.223,0-3.223-4.2a31.465,31.465,0,0,1,1.856-8.789,128.684,128.684,0,0,0,14.794-12.94,72.9,72.9,0,0,0,9.278-11.181q2.878-4.59,2.881-6.348,0-.879-2.832-1.709a21.134,21.134,0,0,0-5.957-.83,16.789,16.789,0,0,0-6.2.83,11.4,11.4,0,0,0-3.906,3.174q-2,2.343-4.931,5.761-4.885,5.567-8.252,9.961a63.979,63.979,0,0,0-5.42,8.155,28.012,28.012,0,0,0-2.784,6.884,30.938,30.938,0,0,0-.732,7.032,35.72,35.72,0,0,0,1.709,11.181,20.21,20.21,0,0,0,4.834,8.3,9.582,9.582,0,0,0,6.836,3.076q4.688,0,12.06-7.91t21.534-26.66Q764.335,230.209,761.9,236.506Z"/>
</svg>
